<svg width="81" height="18" viewBox="0 0 81 18" fill="none" xmlns="http://www.w3.org/2000/svg">
<path d="M9.24 17.288C6.904 17.288 4.936 16.488 3.336 14.888C1.752 13.288 0.96 11.304 0.96 8.936C0.96 6.6 1.76 4.64 3.36 3.056C4.96 1.456 6.92 0.655999 9.24 0.655999C11.56 0.655999 13.512 1.456 15.096 3.056C16.68 4.64 17.472 6.6 17.472 8.936C17.472 11.304 16.68 13.288 15.096 14.888C13.512 16.488 11.56 17.288 9.24 17.288ZM9.24 14.96C10.824 14.96 12.168 14.376 13.272 13.208C14.392 12.04 14.952 10.616 14.952 8.936C14.952 7.272 14.4 5.864 13.296 4.712C12.192 3.56 10.84 2.984 9.24 2.984C7.64 2.984 6.28 3.56 5.16 4.712C4.04 5.864 3.48 7.272 3.48 8.936C3.48 10.632 4.032 12.064 5.136 13.232C6.256 14.384 7.624 14.96 9.24 14.96ZM25.5013 17.312C24.0613 17.312 22.9493 16.904 22.1653 16.088C21.3973 15.256 21.0133 14.152 21.0133 12.776V7.304H18.6853V5.24H21.0133V2.192H23.3893V5.24H27.9013V7.304H23.3893V12.704C23.3893 13.472 23.5973 14.072 24.0133 14.504C24.4293 14.936 24.9973 15.152 25.7173 15.152C26.5173 15.152 27.2453 14.92 27.9013 14.456V16.64C27.2453 17.088 26.4453 17.312 25.5013 17.312ZM40.7036 15.488C39.5036 16.688 38.0236 17.288 36.2636 17.288C34.5036 17.288 33.0156 16.688 31.7996 15.488C30.5836 14.272 29.9756 12.808 29.9756 11.096C29.9756 9.4 30.5836 7.952 31.7996 6.752C33.0156 5.552 34.5036 4.952 36.2636 4.952C38.0236 4.952 39.5036 5.552 40.7036 6.752C41.9036 7.952 42.5036 9.4 42.5036 11.096C42.5036 12.808 41.9036 14.272 40.7036 15.488ZM33.4796 13.88C34.2476 14.648 35.1756 15.032 36.2636 15.032C37.3516 15.032 38.2636 14.648 38.9996 13.88C39.7516 13.112 40.1276 12.192 40.1276 11.12C40.1276 10.032 39.7516 9.104 38.9996 8.336C38.2636 7.568 37.3516 7.184 36.2636 7.184C35.1596 7.184 34.2316 7.568 33.4796 8.336C32.7276 9.104 32.3516 10.032 32.3516 11.12C32.3516 12.192 32.7276 13.112 33.4796 13.88ZM59.7491 4.904C61.4611 4.904 62.7971 5.464 63.7571 6.584C64.7331 7.704 65.2211 9.112 65.2211 10.808V17H62.8451V11.192C62.8451 10.056 62.5651 9.104 62.0051 8.336C61.4451 7.568 60.6371 7.184 59.5811 7.184C58.5571 7.184 57.7651 7.56 57.2051 8.312C56.6451 9.064 56.3651 10.008 56.3651 11.144V17H53.9891V11.144C53.9891 10.008 53.7011 9.064 53.1251 8.312C52.5651 7.56 51.7651 7.184 50.7251 7.184C49.6851 7.184 48.8931 7.568 48.3491 8.336C47.8051 9.088 47.5331 10.04 47.5331 11.192V17H45.1571V10.832C45.1571 9.12 45.6291 7.704 46.5731 6.584C47.5331 5.464 48.8611 4.904 50.5571 4.904C51.7091 4.904 52.6931 5.176 53.5091 5.72C54.3411 6.264 54.9091 7 55.2131 7.928C55.5491 7 56.1091 6.264 56.8931 5.72C57.6931 5.176 58.6451 4.904 59.7491 4.904ZM78.6021 15.488C77.4021 16.688 75.9221 17.288 74.1621 17.288C72.4021 17.288 70.9141 16.688 69.6981 15.488C68.4821 14.272 67.8741 12.808 67.8741 11.096C67.8741 9.4 68.4821 7.952 69.6981 6.752C70.9141 5.552 72.4021 4.952 74.1621 4.952C75.9221 4.952 77.4021 5.552 78.6021 6.752C79.8021 7.952 80.4021 9.4 80.4021 11.096C80.4021 12.808 79.8021 14.272 78.6021 15.488ZM71.3781 13.88C72.1461 14.648 73.0741 15.032 74.1621 15.032C75.2501 15.032 76.1621 14.648 76.8981 13.88C77.6501 13.112 78.0261 12.192 78.0261 11.12C78.0261 10.032 77.6501 9.104 76.8981 8.336C76.1621 7.568 75.2501 7.184 74.1621 7.184C73.0581 7.184 72.1301 7.568 71.3781 8.336C70.6261 9.104 70.2501 10.032 70.2501 11.12C70.2501 12.192 70.6261 13.112 71.3781 13.88Z" fill="#F8F8FA"/>
</svg>
