<svg width="89" height="80" viewBox="0 0 89 80" fill="none" xmlns="http://www.w3.org/2000/svg">
<mask id="mask0_893_433" style="mask-type:alpha" maskUnits="userSpaceOnUse" x="0" y="0" width="89" height="80">
<path d="M88.5926 36.9832C88.5926 57.4085 68.7605 73.9664 44.2963 73.9664C42.9426 73.9664 41.6032 73.9157 40.2805 73.8165C34.674 73.3959 29.0941 75.157 24.1679 77.8667C20.5317 79.867 16.6076 80.3741 15.9494 79.7472C15.2913 79.1204 17.2728 77.5882 19.0836 75.2201C21.4469 72.1296 19.6221 67.8962 16.4014 65.7137C6.39484 58.933 0 48.5816 0 36.9832C0 16.558 19.8321 0 44.2963 0C68.7605 0 88.5926 16.558 88.5926 36.9832Z" fill="url(#paint0_radial_893_433)"/>
</mask>
<g mask="url(#mask0_893_433)">
<g filter="url(#filter0_f_893_433)">
<path d="M88.5926 36.9832C88.5926 57.4085 68.7605 73.9664 44.2963 73.9664C42.9426 73.9664 41.6032 73.9157 40.2805 73.8165C34.674 73.3959 29.0941 75.157 24.1679 77.8667C20.5317 79.867 16.6076 80.3741 15.9494 79.7472C15.2913 79.1204 17.2728 77.5882 19.0836 75.2201C21.4469 72.1296 19.6221 67.8962 16.4014 65.7137C6.39484 58.933 0 48.5816 0 36.9832C0 16.558 19.8321 0 44.2963 0C68.7605 0 88.5926 16.558 88.5926 36.9832Z" fill="white"/>
</g>
</g>
<path d="M88.5926 36.9832C88.5926 59.4355 68.7605 73.9664 44.2963 73.9664C42.9426 73.9664 41.6032 73.9157 40.2805 73.8165C34.674 73.3959 29.0941 75.157 24.1679 77.8668C20.5317 79.867 16.6076 80.3741 15.9495 79.7473C15.5111 79.3298 16.2435 78.5108 17.3165 77.3109C17.8547 76.709 18.4787 76.0112 19.0836 75.2201C21.4469 72.1296 19.6255 67.9005 16.3461 65.8072C6.3713 59.4402 0 50.2626 0 36.9832C0 14.7843 19.8321 0 44.2963 0C68.7605 0 88.5926 14.7843 88.5926 36.9832Z" fill="white"/>
<path d="M88.5926 36.9832C88.5926 59.4355 68.7605 73.9664 44.2963 73.9664C42.9426 73.9664 41.6032 73.9157 40.2805 73.8165C34.674 73.3959 29.0941 75.157 24.1679 77.8668C20.5317 79.867 16.6076 80.3741 15.9495 79.7473C15.5111 79.3298 16.2435 78.5108 17.3165 77.3109C17.8547 76.709 18.4787 76.0112 19.0836 75.2201C21.4469 72.1296 19.6255 67.9005 16.3461 65.8072C6.3713 59.4402 0 50.2626 0 36.9832C0 14.7843 19.8321 0 44.2963 0C68.7605 0 88.5926 14.7843 88.5926 36.9832Z" stroke="white"/>
<ellipse cx="44.2857" cy="32.8567" rx="4.28571" ry="7.14286" fill="black"/>
<ellipse cx="67.1431" cy="32.8567" rx="4.28571" ry="7.14286" fill="black"/>
<defs>
<filter id="filter0_f_893_433" x="-112.654" y="-112.654" width="313.901" height="305.308" filterUnits="userSpaceOnUse" color-interpolation-filters="sRGB">
<feFlood flood-opacity="0" result="BackgroundImageFix"/>
<feBlend mode="normal" in="SourceGraphic" in2="BackgroundImageFix" result="shape"/>
<feGaussianBlur stdDeviation="56.327" result="effect1_foregroundBlur_893_433"/>
</filter>
<radialGradient id="paint0_radial_893_433" cx="0" cy="0" r="1" gradientUnits="userSpaceOnUse" gradientTransform="translate(44.2962 35.7558) rotate(179.242) scale(44.3386 36.245)">
<stop stop-color="white" stop-opacity="0"/>
<stop offset="1" stop-color="white"/>
</radialGradient>
</defs>
</svg>
