<svg width="31" height="28" viewBox="0 0 31 28" fill="none" xmlns="http://www.w3.org/2000/svg">
<mask id="mask0_767_3235" style="mask-type:alpha" maskUnits="userSpaceOnUse" x="0" y="0" width="32" height="28">
<path d="M31.0074 12.9441C31.0074 20.093 24.0662 25.8883 15.5037 25.8883C14.7995 25.8883 14.1063 25.8491 13.427 25.7731C11.8868 25.601 10.3267 26.0474 9.03459 26.9032C8.84704 27.0274 8.65381 27.1461 8.45878 27.2534C7.1861 27.9534 5.81267 28.1309 5.58231 27.9115C5.35195 27.6921 6.04547 27.1559 6.67927 26.327C7.50642 25.2454 6.86773 23.7637 5.74048 22.9998C2.23819 20.6266 0 17.0036 0 12.9441C0 5.79528 6.94124 0 15.5037 0C24.0662 0 31.0074 5.79528 31.0074 12.9441Z" fill="url(#paint0_radial_767_3235)"/>
</mask>
<g mask="url(#mask0_767_3235)">
<g filter="url(#filter0_f_767_3235)">
<path d="M31.0074 12.9441C31.0074 20.093 24.0662 25.8883 15.5037 25.8883C14.7995 25.8883 14.1063 25.8491 13.427 25.7731C11.8868 25.601 10.3267 26.0474 9.03459 26.9032C8.84704 27.0274 8.65381 27.1461 8.45878 27.2534C7.1861 27.9534 5.81267 28.1309 5.58231 27.9115C5.35195 27.6921 6.04547 27.1559 6.67927 26.327C7.50642 25.2454 6.86773 23.7637 5.74048 22.9998C2.23819 20.6266 0 17.0036 0 12.9441C0 5.79528 6.94124 0 15.5037 0C24.0662 0 31.0074 5.79528 31.0074 12.9441Z" fill="white"/>
</g>
</g>
<path d="M31.0074 12.9441C31.0074 20.093 24.0662 25.8883 15.5037 25.8883C14.7995 25.8883 14.1063 25.8491 13.427 25.7731C11.8868 25.601 10.3267 26.0474 9.03459 26.9032C8.84704 27.0274 8.65381 27.1461 8.45878 27.2534C7.1861 27.9534 5.81267 28.1309 5.58231 27.9115C5.4289 27.7654 5.68522 27.4788 6.06077 27.0588C6.24915 26.8481 6.46754 26.6039 6.67927 26.327C7.50642 25.2454 6.86773 23.7637 5.74048 22.9998C2.23819 20.6266 0 17.0036 0 12.9441C0 5.79528 6.94124 0 15.5037 0C24.0662 0 31.0074 5.79528 31.0074 12.9441Z" fill="white"/>
<path d="M31.0074 12.9441C31.0074 20.093 24.0662 25.8883 15.5037 25.8883C14.7995 25.8883 14.1063 25.8491 13.427 25.7731C11.8868 25.601 10.3267 26.0474 9.03459 26.9032C8.84704 27.0274 8.65381 27.1461 8.45878 27.2534C7.1861 27.9534 5.81267 28.1309 5.58231 27.9115C5.4289 27.7654 5.68522 27.4788 6.06077 27.0588C6.24915 26.8481 6.46754 26.6039 6.67927 26.327C7.50642 25.2454 6.86773 23.7637 5.74048 22.9998C2.23819 20.6266 0 17.0036 0 12.9441C0 5.79528 6.94124 0 15.5037 0C24.0662 0 31.0074 5.79528 31.0074 12.9441Z" stroke="white"/>
<ellipse cx="15.5" cy="11.5" rx="1.5" ry="2.5" fill="#080808"/>
<ellipse cx="23.5" cy="11.5" rx="1.5" ry="2.5" fill="#080808"/>
<defs>
<filter id="filter0_f_767_3235" x="-11.9482" y="-11.9482" width="54.9041" height="51.8963" filterUnits="userSpaceOnUse" color-interpolation-filters="sRGB">
<feFlood flood-opacity="0" result="BackgroundImageFix"/>
<feBlend mode="normal" in="SourceGraphic" in2="BackgroundImageFix" result="shape"/>
<feGaussianBlur stdDeviation="5.97408" result="effect1_foregroundBlur_767_3235"/>
</filter>
<radialGradient id="paint0_radial_767_3235" cx="0" cy="0" r="1" gradientUnits="userSpaceOnUse" gradientTransform="translate(15.5037 12.5145) rotate(179.242) scale(15.5185 12.6858)">
<stop stop-color="white" stop-opacity="0"/>
<stop offset="1" stop-color="white"/>
</radialGradient>
</defs>
</svg>
